P2
80 80
255
149
148
148
149
149
148
149
148
147
147
146
147
147
148
148
147
148
147
146
146
147
148
147
148
149
149
150
150
151
150
151
152
151
152
152
153
154
154
153
152
152
151
151
152
152
153
152
151
150
151
150
151
150
151
151
149
150
149
150
151
148
148
149
149
149
151
150
151
149
151
151
151
151
151
150
151
151
152
152
152
149
148
149
149
149
148
147
147
148
147
147
146
147
147
148
147
148
146
147
146
147
147
148
149
149
149
149
150
150
150
150
150
152
151
151
152
152
151
153
151
152
152
154
152
151
150
151
151
150
149
151
150
150
151
151
149
151
149
150
150
148
149
152
149
148
149
150
150
149
150
150
150
150
150
150
151
149
150
151
150
148
148
148
147
148
148
147
146
146
145
146
146
146
146
147
146
147
146
147
148
147
148
148
149
148
149
149
151
149
149
151
152
150
151
151
152
151
153
150
151
151
150
150
149
151
150
150
149
149
149
149
148
150
149
149
149
150
149
147
147
148
148
149
149
149
147
149
149
149
150
150
148
149
149
150
148
149
149
149
150
149
148
148
149
149
149
148
148
146
146
146
145
145
146
146
146
147
147
147
147
147
147
150
149
149
148
150
149
149
150
151
150
151
150
149
150
149
151
150
150
149
149
151
149
148
149
149
149
149
147
148
149
148
148
147
147
148
147
147
146
147
148
150
150
148
149
149
149
148
148
148
148
148
147
149
149
149
149
150
150
148
147
148
149
149
150
147
146
146
146
146
146
146
147
146
145
148
147
148
148
149
149
150
150
151
152
152
152
152
152
151
152
152
151
151
149
149
151
151
150
150
150
150
150
150
150
149
149
149
147
146
148
148
148
147
148
148
147
147
147
147
148
148
148
149
148
148
148
148
147
146
148
147
148
149
150
148
149
148
149
147
148
149
149
150
150
147
148
147
147
146
145
146
146
145
146
147
147
148
149
149
150
151
153
154
154
153
153
153
153
153
152
152
152
152
151
150
151
151
149
151
149
150
149
150
149
149
149
149
149
148
148
148
147
148
148
148
150
150
146
148
148
150
148
147
147
147
147
147
146
147
148
146
146
147
148
147
147
147
147
147
147
149
149
149
148
148
148
147
147
147
147
146
146
146
147
147
146
147
148
149
151
152
152
153
153
154
152
152
152
153
153
152
152
152
152
154
153
151
150
149
148
149
149
148
149
149
148
145
146
147
146
147
146
148
148
148
149
149
146
147
147
147
149
148
148
147
148
148
147
148
148
148
148
149
148
149
150
151
150
148
148
149
149
148
150
149
148
148
148
146
145
146
145
146
146
147
149
149
150
151
152
152
154
153
155
155
155
156
156
156
158
156
155
156
156
156
156
153
153
151
153
150
152
151
149
151
150
150
150
150
150
150
151
150
149
150
150
150
151
151
149
149
150
149
150
153
155
153
154
154
154
155
155
154
156
155
155
155
155
148
148
147
148
148
149
149
149
148
148
146
145
144
145
145
146
147
149
149
151
152
154
154
156
159
157
155
152
148
148
155
162
167
165
169
144
146
149
153
155
155
154
154
153
153
154
153
153
152
153
152
152
153
152
154
150
151
150
151
152
151
151
150
150
145
146
137
147
154
154
155
139
128
122
122
132
136
124
113
95
146
147
146
146
149
149
148
149
149
149
149
148
144
145
146
147
147
148
149
151
152
153
136
123
110
98
96
95
84
81
82
80
80
79
81
89
90
111
146
153
156
157
157
151
145
137
130
139
153
164
157
138
118
119
136
142
145
129
116
124
131
129
112
99
106
130
133
127
118
99
85
78
96
117
140
144
143
128
122
124
145
146
147
147
147
147
149
150
150
149
148
147
145
145
145
146
147
147
149
157
111
88
86
80
80
86
86
87
85
86
85
89
89
88
93
99
103
106
110
103
108
119
115
113
107
115
136
148
142
125
102
94
107
123
134
139
137
142
145
162
164
165
166
169
158
145
134
135
149
152
152
141
130
115
109
102
103
99
93
85
146
146
146
148
147
146
148
148
148
149
149
147
146
146
145
145
147
148
153
127
96
93
92
93
94
93
94
94
100
102
113
99
106
103
105
145
134
166
137
158
169
180
180
170
152
137
138
136
132
131
138
141
142
138
126
103
95
91
90
83
83
79
76
77
73
69
65
58
56
59
67
77
79
80
74
69
66
67
70
78
146
146
145
146
148
147
147
149
148
148
147
147
147
145
146
146
148
152
146
117
110
103
106
113
115
115
116
117
123
117
109
103
104
100
107
135
124
129
126
87
87
87
86
78
71
66
62
58
59
61
61
63
69
77
84
80
73
69
76
77
79
82
76
73
73
78
86
88
88
78
73
69
68
70
69
72
74
78
80
84
146
147
147
147
146
147
147
149
147
148
147
145
145
145
145
146
149
152
114
96
99
98
97
96
96
93
92
91
88
90
89
87
89
85
90
96
93
90
102
79
87
102
102
96
83
76
83
98
105
96
81
73
80
87
81
74
70
73
74
77
80
84
88
96
100
106
109
112
122
126
130
135
141
144
147
150
153
154
156
157
149
147
146
146
146
147
148
149
148
148
147
145
144
146
146
147
149
152
106
111
104
94
92
91
92
94
92
96
92
91
92
93
92
89
86
85
81
80
77
65
71
74
77
82
85
93
97
101
105
111
115
123
129
135
139
143
147
149
150
150
152
153
155
156
156
158
157
157
156
157
158
157
157
157
157
158
157
159
160
160
146
147
146
146
146
147
148
148
147
148
148
147
147
148
148
147
149
151
100
80
79
75
77
76
74
73
72
71
74
73
75
73
77
75
77
75
77
81
89
142
147
147
148
152
156
156
155
156
157
156
156
155
155
156
155
156
155
155
154
154
154
155
156
154
156
155
156
155
155
156
157
157
158
159
159
160
161
162
162
158
146
146
146
146
147
146
147
148
148
149
149
148
148
149
149
150
150
151
126
115
119
118
119
120
124
127
130
134
135
139
145
143
148
148
150
150
152
154
152
156
156
156
155
156
157
156
155
156
155
155
156
154
155
155
154
154
154
155
154
154
153
153
153
152
153
153
153
153
153
156
157
159
159
166
145
146
121
140
121
110
146
147
146
146
147
146
147
147
148
148
149
148
148
148
149
149
150
151
152
153
156
156
156
156
156
154
155
155
156
155
157
156
155
155
154
154
156
154
154
155
155
155
154
153
155
153
153
152
151
152
152
152
152
151
152
150
149
150
150
150
151
152
153
154
156
157
159
165
155
139
144
114
142
103
130
105
135
128
120
142
146
145
146
147
147
146
147
147
147
148
148
148
149
149
149
150
151
151
151
152
153
154
153
153
153
153
155
155
154
154
154
154
153
152
153
153
154
153
151
151
153
152
151
148
150
150
151
150
150
150
151
151
151
150
151
151
152
152
155
156
158
163
159
137
145
119
132
108
126
115
124
142
114
137
154
154
133
116
121
85
146
145
147
146
146
146
146
147
147
148
149
148
148
149
149
149
150
150
150
151
152
153
152
151
152
152
154
153
153
152
152
153
153
151
151
153
153
154
152
152
151
151
151
151
150
150
151
151
151
152
152
152
154
154
157
162
165
137
143
121
123
108
110
121
103
148
118
142
138
171
140
122
116
100
79
83
79
84
94
94
147
146
146
146
146
147
146
148
149
148
149
149
148
150
150
149
150
150
150
151
150
151
151
149
151
151
151
151
150
150
152
154
153
153
152
152
153
153
152
151
152
150
151
152
152
153
153
155
157
161
167
138
140
126
119
118
94
119
98
139
116
136
142
163
139
131
113
110
76
81
78
81
89
92
87
85
86
91
92
108
146
146
146
147
147
147
147
148
148
147
147
149
149
149
149
148
148
150
150
151
149
149
149
149
150
149
150
148
149
150
152
154
154
154
152
151
153
153
153
152
153
154
156
159
166
141
143
130
123
115
94
128
101
131
115
128
137
157
139
131
115
115
81
81
78
74
88
91
87
85
84
92
93
103
116
132
144
153
160
166
145
146
146
146
148
148
147
147
147
146
147
147
146
146
149
148
148
149
150
149
149
148
148
148
148
149
149
149
149
150
151
153
155
153
152
152
154
160
166
139
139
126
124
113
91
120
102
129
117
128
142
151
143
128
116
112
82
80
83
78
85
96
90
90
86
90
93
102
116
130
141
151
156
157
158
158
159
158
157
139
146
146
147
147
147
147
149
147
147
146
146
147
146
146
148
148
147
149
149
150
149
148
148
148
148
148
147
148
149
150
150
153
155
157
133
113
118
101
90
117
107
128
114
128
139
150
141
135
117
112
90
83
82
79
85
92
91
89
84
94
94
105
116
130
141
149
154
157
157
157
158
165
174
164
171
189
176
183
187
130
146
146
146
146
147
147
147
148
147
148
148
146
146
147
148
149
149
149
149
148
148
149
149
148
147
147
146
147
149
149
147
137
114
79
94
103
108
127
141
145
142
134
119
114
90
84
83
75
84
92
90
88
84
95
95
106
120
133
143
150
158
158
163
171
162
170
188
179
188
204
194
181
176
175
184
182
166
157
156
146
146
146
146
146
145
147
147
148
148
148
147
147
146
147
147
148
149
149
149
149
148
147
147
148
147
147
146
147
153
124
96
102
125
116
112
119
110
108
88
86
82
77
85
95
87
86
81
95
98
107
120
135
148
158
165
163
156
175
172
166
188
183
181
181
173
183
187
172
159
159
132
151
187
119
116
133
102
111
129
137
145
146
145
146
145
145
147
147
148
149
148
147
147
146
147
146
147
148
147
149
147
148
148
147
147
146
147
146
81
78
79
54
85
84
73
71
86
92
89
86
86
101
102
114
127
144
157
155
147
163
158
152
162
158
164
172
177
179
187
170
170
160
133
177
138
112
120
94
101
114
89
97
105
89
109
146
131
130
180
140
145
146
145
145
146
146
147
146
147
148
148
147
147
147
147
146
146
147
146
147
147
146
146
146
148
147
148
147
113
103
90
85
91
91
91
111
104
119
138
141
143
146
143
145
145
138
151
155
166
165
166
168
162
157
146
156
128
117
113
94
106
95
78
102
106
96
132
143
129
159
134
103
139
140
99
110
111
109
93
79
143
145
146
144
146
145
146
146
146
144
146
147
147
147
146
145
146
148
147
146
147
147
147
147
147
146
147
149
150
152
153
156
149
148
137
137
126
129
134
137
146
158
155
160
162
151
143
138
126
113
105
95
94
88
84
98
109
92
114
135
123
141
126
122
136
122
107
90
79
85
89
69
71
86
92
115
70
87
93
82
144
145
146
146
145
145
145
145
145
145
147
146
146
147
147
146
145
147
147
147
146
146
146
148
148
148
148
147
147
149
150
169
162
163
177
167
167
162
156
149
136
126
111
103
99
93
87
93
108
101
102
138
128
141
130
108
130
114
111
98
92
100
109
114
122
126
131
136
145
152
128
75
74
77
71
82
97
104
108
77
144
143
145
145
144
145
145
145
145
146
147
146
146
147
147
146
146
147
147
147
149
149
148
149
149
149
150
148
147
150
152
181
189
188
184
149
103
96
89
88
102
114
100
115
145
137
161
135
145
147
142
127
111
124
131
133
145
162
158
139
130
139
154
155
129
103
114
145
149
102
80
92
84
89
81
79
73
82
78
72
144
144
145
146
144
145
145
145
144
145
146
146
146
147
148
149
148
148
149
150
151
151
151
151
153
153
153
151
153
153
155
156
154
152
149
114
114
120
137
154
140
153
173
168
130
115
122
133
132
113
98
117
131
124
97
81
83
110
118
104
83
88
97
120
141
140
126
112
127
153
128
154
163
141
121
125
95
132
92
119
144
145
145
145
144
146
145
145
144
145
147
147
146
147
148
149
151
151
151
151
153
155
154
155
156
157
158
154
167
173
167
123
98
82
87
102
107
103
111
107
81
74
86
97
87
77
86
104
119
116
101
102
122
149
163
148
141
145
167
176
166
153
148
151
149
133
118
130
140
128
118
108
104
95
94
80
71
75
71
73
144
143
146
146
145
144
144
145
145
146
146
146
147
148
149
150
152
154
160
127
138
156
145
120
121
137
122
87
88
107
111
80
76
87
101
84
64
83
127
145
123
105
115
147
155
145
124
149
151
133
138
146
136
117
113
92
80
77
76
72
73
73
67
64
62
63
66
67
67
66
80
86
78
76
80
75
74
70
75
72
145
144
145
146
145
144
144
145
145
144
145
146
149
148
138
139
119
89
69
82
98
89
71
68
96
120
124
110
103
120
141
141
123
119
139
145
133
115
101
94
93
98
147
144
141
120
112
121
109
94
83
93
74
73
77
78
74
66
67
72
80
76
69
68
71
71
70
71
72
75
71
76
71
73
92
83
85
92
83
88
145
145
145
144
145
144
144
145
145
144
144
146
126
110
103
125
133
121
125
123
126
141
142
126
107
100
100
97
89
79
74
77
76
67
56
52
61
66
73
79
79
67
64
61
72
76
67
60
63
75
79
72
67
73
80
84
90
92
96
101
107
112
116
123
132
137
136
134
127
124
107
94
101
97
97
102
110
121
122
133
145
144
144
145
146
145
144
144
143
143
144
123
92
70
58
54
89
75
60
54
65
65
67
70
72
84
84
62
57
70
77
73
59
60
74
81
76
67
70
75
82
85
87
94
102
108
113
120
129
137
141
145
149
152
156
158
160
159
159
154
148
136
138
128
108
108
114
117
114
143
122
139
166
125
139
143
113
110
102
96
144
144
145
145
145
145
144
144
144
143
145
144
131
119
95
73
62
53
63
74
68
86
86
76
77
84
94
99
107
114
116
121
127
134
139
146
150
154
156
157
159
158
157
157
158
158
159
161
162
158
158
157
154
146
139
132
117
106
111
102
112
117
127
113
164
144
136
151
121
116
112
92
85
81
81
77
86
87
87
89
144
145
145
147
145
145
145
144
145
145
145
146
148
150
148
148
146
144
141
141
146
150
155
158
160
163
163
165
167
166
164
162
160
161
161
161
160
160
161
159
160
160
158
158
162
161
151
144
135
125
106
109
100
107
102
129
112
152
132
126
146
99
111
92
77
76
73
71
83
94
92
92
94
93
89
88
88
87
91
96
145
145
145
146
145
145
145
144
144
145
146
146
147
148
150
150
153
154
154
156
159
163
163
157
150
142
142
118
119
123
134
155
157
157
158
159
160
160
161
152
145
136
130
116
110
110
105
103
119
112
128
145
112
149
101
107
92
72
69
64
63
67
67
68
69
76
76
73
64
103
95
98
102
108
118
130
138
144
146
148
144
145
145
144
144
145
144
145
145
146
147
147
148
148
150
151
153
154
155
149
137
124
112
98
97
87
88
86
94
94
113
144
157
138
138
126
122
107
103
101
105
108
119
110
142
123
138
127
100
106
77
74
65
63
64
63
64
66
65
70
77
80
77
68
65
65
93
108
121
146
150
151
150
150
150
149
150
149
148
147
144
146
146
144
143
145
146
145
145
147
147
147
147
149
151
153
148
132
111
97
91
85
91
101
103
105
106
104
102
102
105
105
102
100
103
110
122
123
138
123
136
107
106
93
76
68
63
61
64
65
68
67
69
68
71
79
87
93
83
73
65
59
54
68
67
91
168
187
181
174
155
148
146
145
146
146
145
144
143
143
144
143
143
143
143
145
146
145
145
146
147
147
147
150
137
117
98
88
85
89
96
102
96
91
95
95
97
107
114
119
120
123
127
127
125
106
99
85
73
65
64
65
69
69
69
70
69
70
72
76
90
100
109
98
94
84
67
61
76
77
89
127
145
180
207
203
192
173
150
127
154
143
141
140
141
142
143
142
142
141
144
143
143
143
144
145
145
145
144
145
146
147
151
113
97
90
89
94
94
94
95
98
98
101
109
106
110
106
126
115
114
110
81
65
65
67
67
69
72
73
72
72
73
80
86
98
115
133
120
110
97
68
63
74
80
87
117
163
190
214
206
184
153
126
106
101
110
99
86
79
139
139
139
138
139
140
140
139
140
140
143
144
144
144
144
143
143
143
144
145
145
146
128
100
96
98
99
100
102
102
107
113
110
105
99
97
92
92
104
86
82
85
73
85
72
77
73
80
85
97
113
131
150
124
125
99
73
61
72
85
87
94
142
140
167
181
176
154
125
101
101
97
87
83
82
82
82
87
102
117
136
139
139
139
139
140
139
138
139
140
144
144
145
143
144
143
143
143
145
146
147
142
115
106
101
103
101
101
100
95
93
90
88
88
87
85
83
83
86
77
82
76
78
96
112
128
142
156
137
133
101
83
61
65
79
101
122
141
140
130
154
147
129
137
98
100
102
91
87
85
78
84
93
104
119
131
134
140
142
142
142
141
140
140
140
139
139
139
140
139
144
144
144
143
143
141
141
142
144
146
146
130
106
102
96
95
97
95
93
88
86
83
80
81
83
81
82
78
83
79
89
103
142
145
130
103
88
58
62
80
100
116
139
155
145
145
131
118
111
104
96
110
89
92
87
83
86
92
102
117
131
139
143
144
145
146
145
144
144
142
141
141
140
140
139
139
140
139
140
147
143
143
144
143
142
142
142
143
144
145
145
121
100
95
93
85
79
75
69
65
59
57
60
86
95
109
124
138
141
121
100
89
55
62
79
77
91
106
149
160
127
146
115
113
87
85
94
80
86
83
94
79
91
103
119
130
139
146
145
146
146
144
146
145
146
146
143
143
144
142
143
143
142
142
142
143
142
141
141
126
143
144
145
143
144
143
144
143
146
146
147
124
80
70
59
52
48
44
41
44
42
47
38
85
117
113
96
62
61
66
67
82
97
123
120
127
127
121
107
81
81
83
81
80
81
85
79
88
102
119
131
141
148
150
148
148
146
147
147
146
146
144
146
145
145
144
144
145
145
145
145
145
145
145
147
147
148
147
121
56
143
144
144
143
143
145
146
146
147
148
127
94
53
43
44
42
41
41
40
39
36
38
45
55
62
76
80
93
118
115
124
124
118
108
95
85
79
74
75
72
79
78
88
102
119
133
143
150
151
151
150
149
149
148
146
145
146
145
145
145
144
144
144
144
144
145
144
145
146
148
146
141
132
128
128
136
134
120
73
62
144
144
144
142
142
144
146
142
107
72
54
48
45
45
39
36
38
42
47
52
58
66
71
76
95
116
121
111
102
87
75
65
62
60
62
73
77
87
103
118
134
143
150
153
152
151
151
149
149
148
148
148
149
149
149
151
150
147
147
144
141
136
132
130
131
129
121
117
110
113
117
111
115
110
111
113
111
112
95
130
144
144
142
141
144
147
106
59
50
48
48
50
47
45
45
52
61
68
66
72
70
72
62
62
67
64
53
52
45
53
60
71
87
101
116
132
144
153
155
155
157
152
147
144
146
142
134
123
124
128
125
123
116
118
107
106
112
115
111
115
136
145
137
126
148
170
188
188
180
170
170
172
186
189
189
185
181
192
136
99
142
142
141
143
146
121
46
47
47
47
49
55
61
64
67
63
66
59
58
53
48
42
38
38
39
46
61
89
105
104
109
119
124
112
101
108
109
102
87
91
95
105
104
105
115
132
131
127
140
154
163
162
155
163
182
196
199
181
157
155
166
175
171
149
130
122
120
119
115
108
101
89
85
80
75
76
71
67
80
79
141
140
142
142
149
74
55
53
53
54
56
58
57
53
46
41
43
40
39
36
34
34
34
36
34
55
47
56
63
76
85
90
102
118
133
137
127
138
154
155
155
160
165
165
164
162
160
155
145
139
140
147
130
151
132
122
106
114
115
119
117
69
72
75
74
71
71
75
78
78
76
71
67
69
73
65
61
61
55
55
139
140
141
143
122
58
54
49
44
41
40
42
45
42
38
37
43
40
42
38
40
33
34
72
82
105
106
146
150
153
155
155
152
146
140
132
122
115
109
102
95
83
77
68
66
64
65
65
62
59
95
91
92
101
75
72
75
94
71
66
61
70
79
82
84
82
84
87
91
95
99
104
111
114
121
125
130
133
100
96
140
140
141
143
92
49
47
47
45
44
41
42
44
45
49
52
64
77
94
76
66
98
87
101
91
91
70
85
79
72
67
56
48
48
47
50
47
52
61
61
51
51
62
68
66
63
72
86
88
89
84
87
90
97
104
110
115
119
124
130
134
138
141
143
144
146
147
148
149
150
150
150
149
150
149
146
127
98
98
95
139
139
140
141
77
49
51
49
47
48
57
63
78
96
113
124
133
137
136
103
94
70
49
45
42
39
45
54
49
55
61
69
71
79
94
102
98
100
108
118
129
137
141
143
139
131
123
118
112
113
117
122
127
130
126
119
113
110
110
96
96
101
103
102
100
94
89
84
82
79
79
83
84
84
84
82
79
88
87
84
140
141
141
143
114
74
79
85
100
114
125
133
137
138
140
140
141
142
144
143
144
143
142
122
91
84
72
69
71
77
79
86
86
89
86
80
72
63
58
58
61
68
69
70
70
70
75
78
113
132
129
151
135
129
136
146
129
127
149
159
166
172
175
180
182
183
191
191
187
188
185
198
205
218
225
217
229
115
137
133
141
143
142
142
139
135
138
141
140
140
141
141
139
139
140
140
140
142
144
147
110
89
53
49
46
58
69
78
78
81
82
88
93
97
97
101
106
104
110
121
135
148
155
166
172
175
199
225
242
239
240
230
215
213
209
212
208
200
204
192
183
184
177
171
173
177
177
170
164
151
135
132
132
131
133
123
121
94
91
89
141
142
142
141
140
140
141
141
139
140
140
140
139
139
139
139
140
121
99
80
82
82
92
88
87
86
99
87
84
82
83
85
82
84
82
79
80
79
77
72
75
78
77
77
78
79
76
68
66
65
70
72
68
64
63
58
60
61
60
62
62
62
63
64
64
64
65
67
66
67
67
67
69
70
72
73
69
84
81
84
142
141
142
142
141
141
140
140
140
140
141
140
141
140
139
138
139
117
79
62
51
45
47
52
49
44
42
42
43
44
46
47
47
47
48
48
48
49
51
53
53
56
58
57
57
58
62
64
62
63
66
67
67
67
67
70
71
69
71
73
76
77
78
79
81
83
87
87
89
94
95
95
98
95
94
92
86
78
74
77
142
143
142
142
142
143
142
142
142
141
141
140
141
141
141
140
140
139
140
136
108
90
76
63
68
57
57
61
61
63
63
64
66
65
68
72
73
74
77
80
84
86
88
89
92
94
97
101
103
106
108
112
114
116
118
119
122
124
125
126
129
130
131
134
136
137
137
139
140
141
142
143
144
143
143
145
140
116
83
84
144
142
143
142
142
142
141
141
142
142
140
140
141
141
141
140
140
139
139
139
140
141
141
138
135
132
131
134
135
136
137
139
138
139
138
139
139
141
141
140
140
139
139
139
139
139
139
139
139
139
139
138
138
138
138
138
140
138
139
138
138
140
140
141
140
141
141
141
142
142
142
144
144
144
144
146
146
141
101
90
143
143
143
143
143
141
141
142
140
141
140
140
140
140
140
141
141
141
140
138
139
140
141
142
141
140
141
140
142
141
141
142
142
143
141
142
141
141
140
140
139
138
138
137
137
137
138
137
137
136
136
136
136
135
135
135
137
136
136
136
137
138
137
139
139
138
139
141
140
141
141
143
144
143
144
145
145
145
144
142
144
143
144
143
143
141
142
142
141
141
142
141
139
141
139
141
141
142
140
139
139
139
140
141
141
139
140
141
141
141
142
142
141
141
140
138
139
139
139
138
139
138
138
137
136
136
137
137
136
136
136
137
137
135
136
135
137
136
136
138
137
137
138
139
139
139
140
141
141
141
141
143
146
145
146
146
146
145
147
146
143
144
143
142
142
143
142
142
142
142
142
140
139
140
140
141
142
140
139
140
138
140
141
140
139
138
139
141
139
139
140
140
141
141
140
139
139
139
138
139
141
139
139
138
138
137
137
137
137
136
136
136
138
136
135
136
136
136
136
136
136
137
138
138
139
139
139
139
141
142
141
141
141
143
145
145
145
145
145
146
143
143
143
142
141
141
142
142
141
141
140
140
139
141
140
142
141
140
139
139
139
139
140
140
139
140
139
140
139
139
138
140
139
138
138
138
138
137
137
137
137
138
138
138
137
137
136
136
135
135
134
134
134
134
136
134
135
135
135
135
135
136
136
137
137
138
137
138
140
140
140
141
140
142
144
145
146
146
146
145
142
142
143
141
140
141
140
141
141
141
141
140
140
140
140
139
140
140
140
138
138
139
138
140
140
140
139
138
138
137
138
137
137
137
136
137
137
136
136
136
135
136
137
137
136
135
136
135
135
136
134
135
134
135
134
135
134
134
134
134
134
135
135
136
136
136
137
138
138
137
138
139
140
142
144
144
144
145
146
144
144
142
141
141
141
141
140
140
140
141
139
139
139
139
139
139
139
139
138
138
137
137
138
138
139
139
139
137
136
136
135
137
135
136
135
136
136
135
136
135
134
135
136
135
135
136
136
135
134
134
132
132
133
133
134
134
133
133
135
134
133
134
134
134
136
138
138
137
138
138
138
138
139
142
144
144
144
144
145
146
144
141
142
141
140
141
140
141
140
140
139
138
139
140
139
139
139
138
138
138
137
136
136
138
139
138
138
136
135
136
135
135
135
134
135
136
134
135
135
134
134
135
135
134
134
133
135
134
133
133
133
133
133
132
133
133
132
132
133
131
134
134
133
134
135
135
137
139
137
137
137
138
138
141
142
143
143
143
144
144
142
141
142
141
139
140
139
140
140
139
139
138
139
138
139
138
137
137
137
136
136
136
137
137
139
138
136
135
135
134
136
135
135
135
134
133
134
133
132
134
134
135
133
134
134
134
133
133
132
134
133
133
133
133
134
132
133
134
133
134
133
133
134
133
133
134
136
137
137
137
138
138
139
138
140
140
142
143
142
143
141
141
141
141
139
141
140
140
140
140
139
138
138
138
139
137
136
137
137
137
138
137
137
137
137
137
136
135
135
135
134
133
134
134
135
134
134
134
134
133
134
133
134
133
132
133
134
132
133
133
134
133
133
133
132
132
132
132
133
133
133
132
134
133
133
133
133
134
135
136
135
137
137
137
139
139
140
141
141
143
141
141
141
140
140
140
140
141
141
140
141
139
138
138
139
137
136
137
137
137
136
137
136
137
137
136
136
136
135
136
135
134
134
134
133
133
134
134
134
133
134
133
134
133
133
133
133
133
134
134
134
134
133
131
132
132
132
132
132
133
131
131
133
134
133
132
134
135
135
135
136
136
137
137
138
139
140
141
141
143
141
141
140
140
139
141
140
140
139
140
139
139
137
137
139
138
137
137
137
136
137
137
136
137
137
137
136
136
135
135
135
133
133
134
133
134
134
133
133
132
133
133
133
134
133
131
132
133
133
134
134
134
133
132
132
133
132
131
131
131
131
132
133
133
133
133
133
134
134
134
135
135
136
136
137
138
139
140
141
142
140
140
139
138
139
139
139
140
140
139
139
138
138
138
137
136
136
136
136
136
137
137
137
137
136
136
135
136
135
135
134
133
134
135
134
133
133
133
132
132
132
131
132
132
133
131
132
132
133
131
133
134
133
132
133
134
133
132
132
132
131
133
132
132
133
133
134
133
134
134
134
135
136
136
137
137
139
138
140
140
141
141
139
140
139
139
139
139
139
138
139
138
136
137
137
137
136
135
135
134
135
136
136
136
136
136
136
135
135
135
134
134
135
135
134
132
133
132
131
132
132
133
132
133
133
132
132
131
131
131
132
131
132
131
132
133
132
133
132
131
132
131
132
132
134
133
132
133
133
133
134
134
135
136
137
136
137
139
140
140
141
140
139
140
140
138
139
140
140
139
139
139
138
136
137
135
135
135
135
135
134
134
135
135
133
133
134
134
133
134
134
134
134
134
134
133
133
133
133
131
133
132
133
132
131
131
131
131
131
131
132
131
132
132
132
132
132
132
131
131
132
132
133
134
134
133
133
133
133
134
133
134
135
136
137
137
136
136
139
140
141
141
141
140
139
139
139
139
139
138
139
138
138
137
135
134
134
135
135
134
134
134
135
134
134
135
133
134
134
133
134
134
133
133
133
133
133
134
134
132
133
132
131
132
132
132
133
133
131
132
132
132
132
132
132
132
132
132
133
133
133
134
132
132
134
134
133
134
133
134
134
134
136
136
137
137
137
137
139
140
140
141
141
139
139
139
139
140
139
138
138
137
137
136
135
134
134
134
133
133
134
135
134
134
134
135
134
133
133
133
133
133
133
134
133
132
133
134
134
133
132
132
132
132
132
131
131
132
131
131
132
133
132
131
132
132
133
132
132
133
133
133
132
134
134
134
135
134
135
134
134
134
135
136
136
137
139
139
139
141
139
139
140
140
139
137
138
139
138
138
137
136
136
134
135
133
133
131
132
132
132
132
131
132
133
133
133
132
133
133
132
132
132
132
132
134
132
133
133
132
132
132
129
131
132
132
132
131
131
130
130
130
131
130
130
130
131
131
132
132
132
133
134
135
134
134
134
134
134
135
135
135
135
135
135
137
137
138
139
142
