P2
80 80
255
149
150
148
149
148
147
147
147
147
147
148
147
148
147
146
147
146
147
147
147
149
149
149
150
149
151
150
152
152
151
152
152
153
154
154
153
152
152
151
151
151
153
153
152
149
150
150
150
151
150
151
151
150
149
150
150
151
148
148
149
149
149
152
151
150
150
151
150
151
151
151
150
151
151
152
152
152
152
152
151
149
148
148
147
147
147
147
147
146
147
148
148
147
148
147
148
146
147
147
149
149
148
149
149
151
151
151
150
151
151
151
150
152
151
152
153
152
151
153
152
151
151
150
151
149
149
150
150
150
151
152
151
150
150
150
151
148
148
150
151
149
148
151
149
150
149
150
149
149
150
150
151
151
149
151
151
151
152
152
152
148
148
148
146
145
146
145
147
147
146
147
146
147
147
147
147
148
148
148
148
150
149
149
150
150
149
150
151
151
150
151
152
151
153
151
152
151
150
151
149
150
150
150
149
149
149
149
148
149
150
149
149
149
150
150
147
148
148
149
149
149
148
149
149
148
149
150
149
149
149
149
149
149
149
148
150
150
149
150
150
149
149
149
148
146
146
147
146
145
145
146
146
146
147
147
146
148
147
148
150
149
149
148
150
148
149
151
151
150
151
149
150
149
150
151
150
150
149
149
150
149
149
149
148
149
149
146
148
148
148
148
148
148
148
147
148
147
148
149
151
149
148
148
150
147
148
148
149
148
146
148
149
150
149
149
151
149
149
148
149
149
149
149
146
146
146
146
146
146
147
147
145
147
147
148
146
149
148
149
149
151
152
151
153
152
151
151
152
151
151
151
150
149
150
151
151
149
151
149
149
149
150
149
148
148
149
147
148
148
149
148
147
148
148
148
147
147
147
149
148
149
149
147
147
147
148
147
146
148
147
149
150
149
149
149
148
150
148
150
149
149
150
149
147
147
146
146
146
146
146
146
145
146
148
148
148
150
149
150
152
154
153
153
152
153
153
154
153
152
152
152
152
151
151
150
150
150
151
149
150
149
149
150
149
150
148
149
147
149
148
147
148
149
149
150
149
146
149
148
149
148
148
148
148
147
147
146
148
147
146
146
147
148
147
147
147
147
148
149
148
150
149
148
148
147
147
148
148
147
146
146
147
147
147
146
147
149
150
152
152
153
153
153
153
151
152
152
154
153
152
152
152
152
155
152
151
150
149
148
149
149
148
150
148
147
145
147
146
147
147
147
149
148
149
149
147
146
147
147
148
148
148
147
147
147
149
148
148
148
149
148
149
148
150
152
151
152
153
153
153
149
149
149
149
148
148
147
145
145
145
146
146
145
148
150
149
150
152
152
153
154
154
155
155
155
156
156
157
157
156
155
156
155
156
155
153
152
152
152
151
151
150
151
150
151
150
150
150
150
151
151
149
149
149
151
149
151
150
148
150
149
149
150
154
155
153
153
155
154
155
155
154
155
155
155
155
155
156
158
160
148
149
148
150
148
148
148
145
144
144
145
146
146
148
149
150
151
153
153
154
157
158
157
154
150
148
151
157
163
167
167
162
139
149
150
154
154
155
154
154
153
154
153
153
152
152
152
153
152
152
153
152
150
151
151
150
152
150
149
150
148
142
143
141
150
154
155
150
134
124
122
126
133
132
122
108
88
88
87
96
147
149
149
149
150
150
149
148
146
145
145
146
147
147
149
150
152
155
147
132
119
106
95
97
93
82
80
81
81
78
80
84
91
90
127
152
154
157
158
156
150
141
135
131
145
157
164
151
129
118
121
141
149
137
120
121
122
132
121
109
98
114
130
135
125
113
90
80
82
105
123
145
144
142
123
121
126
139
156
174
147
147
148
150
150
150
149
147
146
145
145
145
147
147
148
151
147
97
89
82
79
82
87
87
86
85
86
86
90
89
88
98
100
104
108
107
105
113
120
114
110
108
121
142
149
138
116
95
97
112
129
136
139
137
145
150
164
162
167
168
164
154
142
134
139
151
155
149
136
125
111
106
101
102
97
90
82
76
76
72
148
148
147
148
148
148
149
148
147
146
145
146
146
147
149
156
108
94
92
93
93
94
93
93
97
101
105
109
99
106
104
124
137
137
163
143
165
173
182
180
162
146
137
139
136
133
131
140
143
138
135
118
100
92
89
88
83
81
78
77
75
73
68
62
57
57
61
72
79
80
78
74
67
66
66
72
78
77
75
71
146
147
147
149
148
149
147
147
147
146
145
146
147
149
152
133
116
106
104
110
114
113
117
114
121
122
116
108
100
106
96
120
132
125
129
112
86
86
88
83
76
68
64
60
59
59
62
60
64
72
81
84
78
69
74
75
77
81
80
75
72
74
79
89
89
84
76
71
68
68
69
69
72
75
79
81
86
89
92
99
147
147
147
148
149
148
147
147
145
145
145
145
148
149
151
98
98
99
98
96
96
95
93
92
90
89
90
88
89
86
86
94
94
91
94
94
77
94
103
99
92
80
78
88
102
103
90
77
73
83
85
80
71
71
74
74
77
81
85
91
97
102
106
110
116
123
127
132
137
142
146
148
151
153
155
156
156
156
156
157
146
146
147
148
149
148
148
147
145
145
145
146
148
150
140
104
109
100
92
91
92
92
94
94
96
91
92
92
93
91
88
87
82
81
81
70
67
72
76
79
83
88
95
98
103
106
113
119
124
131
136
140
145
148
149
150
151
152
154
156
155
156
157
157
157
156
158
158
157
157
157
157
158
159
159
160
159
162
163
163
146
146
148
148
148
147
149
148
147
148
148
148
148
149
144
84
79
77
77
77
75
74
74
71
72
74
73
74
74
77
76
75
76
79
82
110
145
148
147
150
154
156
156
155
155
157
156
156
155
155
156
155
156
155
155
155
154
155
156
155
155
156
155
155
155
155
156
157
158
159
159
159
162
162
162
164
149
142
140
128
146
147
146
148
148
149
149
149
148
149
148
149
149
150
148
117
117
119
118
119
121
125
127
131
135
136
141
144
145
148
149
149
151
154
153
153
156
156
155
156
156
157
156
155
156
154
155
156
154
154
155
155
153
156
154
154
153
153
154
152
152
153
154
153
154
154
156
158
159
161
162
139
145
120
139
112
116
104
120
129
147
147
146
148
147
149
149
149
148
148
148
149
149
151
152
153
154
155
156
156
156
155
155
155
155
156
156
156
156
154
155
154
155
156
154
153
155
156
154
153
154
154
153
153
152
150
152
153
152
152
152
152
150
149
150
150
150
151
152
152
155
157
158
161
167
142
145
128
127
126
118
116
117
141
117
133
147
164
144
125
147
147
146
147
146
147
149
149
148
149
149
149
150
151
151
152
153
154
154
152
153
153
154
155
155
154
153
153
154
153
153
153
153
154
153
151
152
152
151
150
148
149
150
150
150
150
149
151
150
151
150
151
151
153
153
155
156
159
165
150
139
139
119
128
106
136
102
144
122
124
139
163
142
129
116
114
79
90
85
84
146
145
146
146
147
148
149
149
148
148
149
149
150
149
150
151
152
152
152
152
151
151
152
153
154
152
152
153
153
152
151
152
153
153
154
151
152
151
151
150
150
150
150
152
151
152
151
152
153
154
155
159
165
156
136
141
116
124
99
125
104
124
140
119
143
150
164
136
114
119
85
84
80
80
88
94
92
87
88
90
147
146
147
147
148
149
148
149
148
149
149
149
150
150
150
150
150
151
152
150
149
151
152
151
151
150
151
153
154
153
153
152
152
153
153
152
152
151
150
152
152
152
152
153
156
158
163
163
133
140
118
128
97
107
107
111
142
112
145
144
159
134
122
117
97
77
80
79
83
93
89
87
84
89
90
97
113
127
141
154
146
147
147
148
148
148
148
147
150
150
149
148
148
148
150
150
151
149
149
149
149
150
150
149
149
149
151
153
155
154
152
152
152
153
153
153
153
153
154
156
162
162
136
142
121
128
99
110
118
107
135
104
144
130
164
130
129
113
105
75
83
74
78
91
88
86
84
88
93
95
107
122
137
148
156
163
166
164
167
163
146
147
148
148
147
147
146
147
147
146
147
148
149
148
150
149
149
149
147
147
148
148
149
149
148
149
150
153
153
155
153
152
151
156
163
159
134
140
121
128
95
106
111
110
128
115
139
138
161
128
131
110
109
75
83
80
79
91
95
91
86
88
92
96
107
121
134
145
153
156
157
158
159
158
159
151
138
128
127
128
147
146
148
149
148
147
146
147
147
146
147
148
148
148
150
150
150
148
148
148
148
148
147
147
149
150
150
151
155
155
152
125
109
122
87
104
111
116
122
115
135
140
154
136
132
114
107
83
85
80
78
89
92
90
86
88
94
97
108
121
134
145
150
155
157
158
155
160
169
173
162
179
186
173
191
162
131
136
135
136
146
147
147
146
148
148
148
148
146
146
147
149
149
149
149
148
148
148
149
148
147
147
146
147
148
150
149
142
135
97
80
101
104
111
135
142
146
138
129
117
105
85
83
79
78
88
91
91
83
87
95
97
110
125
137
146
152
159
160
167
169
160
179
186
180
194
204
187
178
174
177
185
178
160
159
147
161
192
184
173
146
146
148
148
149
148
149
147
146
146
147
147
148
149
149
149
149
149
147
148
147
147
146
146
148
148
111
96
112
123
115
119
112
112
100
87
86
79
76
92
93
88
82
88
95
99
112
125
140
151
161
166
159
162
178
166
174
189
183
182
177
175
187
184
165
160
155
127
173
167
105
127
127
96
122
130
136
126
126
123
146
146
146
147
147
148
148
147
146
146
147
147
146
148
148
147
148
147
148
148
147
145
147
147
131
66
89
68
61
88
80
71
74
93
88
90
83
93
100
106
118
132
149
160
150
153
165
153
156
161
159
167
174
176
185
183
165
171
146
147
173
117
117
115
91
108
105
89
103
100
89
126
148
120
151
166
140
127
125
124
145
145
146
146
146
147
147
147
147
147
147
146
147
146
146
146
148
147
146
146
147
147
148
147
137
108
100
85
89
92
89
99
109
108
127
140
141
143
147
141
147
144
138
153
159
168
163
170
165
162
152
149
152
119
118
107
94
108
84
83
111
99
105
144
136
136
159
118
112
148
124
97
114
112
105
84
79
72
77
69
144
145
145
146
145
146
146
146
147
147
147
145
145
147
148
146
146
147
147
147
147
147
146
147
149
151
154
153
155
149
144
135
136
122
134
132
140
150
160
153
164
156
148
141
136
120
111
102
92
94
85
88
105
103
92
127
129
127
143
117
131
131
116
101
83
81
87
85
68
78
79
115
95
72
92
90
79
80
82
74
145
145
146
145
144
145
146
146
146
147
147
146
146
147
147
147
147
145
147
146
148
147
148
148
147
147
150
156
168
162
170
175
164
166
159
154
145
131
122
108
102
97
90
88
98
110
96
115
139
125
148
114
118
126
109
109
94
93
105
111
117
123
128
132
139
147
152
102
72
77
76
72
90
99
109
95
73
67
67
71
145
144
144
144
145
145
147
147
147
147
147
146
147
147
147
146
147
149
148
147
149
149
149
150
148
148
150
151
197
189
187
182
124
100
94
87
92
108
108
98
133
142
144
157
132
148
146
141
117
115
128
131
135
153
163
154
134
129
144
160
147
117
104
124
152
136
88
82
90
87
87
80
77
76
81
75
70
82
108
115
145
144
145
144
144
144
146
146
146
146
147
147
149
148
148
149
151
151
151
151
152
153
152
153
150
153
153
145
165
153
151
140
107
120
122
148
150
140
162
176
153
122
114
126
136
126
106
101
125
131
117
86
80
92
114
115
94
82
94
103
127
144
138
118
116
138
154
120
171
156
129
128
111
110
117
93
133
130
105
93
144
145
146
145
145
145
145
148
147
147
147
150
149
151
152
151
152
154
155
155
155
157
157
156
157
169
173
156
110
95
77
94
106
103
107
112
99
75
75
92
94
83
78
90
112
118
113
97
109
130
160
158
145
139
152
174
174
161
149
148
154
146
125
119
134
138
122
117
107
100
94
92
75
73
75
71
75
73
70
71
146
145
144
144
145
145
147
146
146
147
148
150
151
153
156
153
125
145
156
138
117
127
136
109
83
95
113
104
76
73
97
97
75
66
96
139
142
116
104
125
155
151
144
125
145
150
141
143
144
117
119
104
86
78
75
76
71
73
70
67
62
61
65
66
67
66
64
93
83
77
74
81
76
70
73
73
73
74
72
75
146
144
144
144
145
145
145
145
146
149
150
132
142
104
81
69
88
98
83
66
75
106
123
121
105
105
129
145
135
118
126
144
142
127
110
98
94
91
125
126
147
138
132
100
114
117
87
81
91
70
74
79
77
71
66
68
74
81
73
68
69
71
72
70
71
73
74
73
76
69
81
89
81
90
91
83
87
89
86
85
146
144
144
143
145
144
144
144
144
117
105
110
134
126
121
123
121
131
142
138
118
103
100
100
96
85
76
76
78
73
63
53
55
63
69
74
80
76
68
59
63
76
73
63
59
67
78
77
68
70
75
82
85
90
93
98
103
109
113
118
126
133
137
136
131
126
123
97
99
98
96
99
104
113
121
125
136
135
128
122
146
145
144
144
144
143
142
144
104
87
62
55
74
82
74
49
62
64
67
68
71
75
87
76
56
61
75
78
68
57
64
77
81
72
68
71
77
83
85
89
97
104
109
116
122
132
139
143
145
152
153
156
159
160
160
156
153
143
136
138
119
109
106
118
111
126
139
116
156
155
122
150
130
108
109
99
95
87
89
93
145
145
144
144
144
144
143
146
141
127
113
84
68
58
53
76
65
75
89
82
75
79
88
97
102
110
114
117
124
130
136
141
148
151
155
156
158
159
158
157
157
157
158
159
160
162
159
156
158
152
145
134
130
113
104
108
106
113
123
120
127
169
130
147
145
113
118
104
89
83
82
78
79
87
87
88
88
92
92
85
146
144
145
144
144
144
144
146
147
148
150
147
148
145
143
141
143
148
152
157
159
160
163
164
167
167
167
162
161
160
161
162
161
159
161
160
159
159
159
159
159
162
158
148
141
134
120
102
109
103
100
111
127
116
161
113
144
129
98
111
82
76
75
71
76
89
92
92
93
94
93
87
88
87
87
94
98
106
114
127
146
146
145
144
144
145
145
146
146
148
149
149
152
153
154
155
158
160
162
162
155
146
146
134
113
124
118
147
157
157
157
159
159
159
160
160
148
142
133
129
110
113
104
108
103
125
107
148
125
128
138
97
107
80
71
67
63
64
67
69
68
70
78
75
70
80
97
96
99
104
111
122
133
140
146
147
149
149
148
148
144
144
144
145
144
146
146
147
147
148
148
150
152
154
153
155
144
133
119
105
100
92
88
87
88
94
95
129
150
151
137
136
123
119
103
103
101
106
109
118
118
144
114
150
107
107
93
76
71
63
62
64
64
64
66
68
73
77
81
69
70
62
76
97
115
119
156
151
151
150
150
149
149
150
149
147
146
146
145
144
144
144
146
145
146
146
147
147
147
148
150
152
153
143
125
105
96
88
85
94
106
99
110
101
106
100
103
106
102
102
101
105
114
121
129
134
127
132
99
107
83
73
65
61
62
66
65
68
67
69
69
74
82
93
86
83
68
64
55
59
67
69
119
176
197
178
163
151
148
146
146
146
145
145
144
142
143
143
142
142
143
144
146
145
145
145
147
147
147
147
148
130
109
95
87
85
92
96
102
93
94
94
97
99
112
115
118
123
123
127
127
120
102
96
80
70
64
64
66
70
70
69
69
70
70
72
80
94
107
102
101
88
80
62
65
80
76
103
135
156
186
215
199
183
170
139
141
144
142
141
140
141
143
143
142
141
142
141
141
141
143
144
145
145
145
145
145
146
147
144
101
95
88
92
93
94
94
96
99
100
102
110
105
108
115
123
115
113
102
73
64
66
67
67
71
72
75
70
72
75
83
89
104
123
128
123
100
94
62
64
82
78
93
138
173
195
220
198
169
151
111
106
102
108
94
84
100
140
139
138
138
141
140
140
139
140
140
140
140
140
144
143
144
143
143
145
144
147
147
112
98
97
98
98
101
103
104
109
112
109
105
95
97
90
100
96
84
82
83
74
84
70
78
74
82
88
103
119
137
146
126
110
96
64
60
83
79
91
118
133
153
177
177
168
150
110
100
101
92
88
79
85
79
84
91
108
123
138
139
139
139
139
139
139
139
140
140
140
140
139
143
143
142
142
143
145
146
146
134
109
104
101
103
101
100
98
95
91
89
88
87
87
85
82
85
83
80
81
76
83
103
117
134
146
157
131
121
100
69
63
70
85
109
123
156
131
133
157
140
138
121
98
103
97
94
80
88
76
88
98
108
125
132
136
141
142
143
141
141
140
140
140
140
140
138
140
140
142
143
143
143
142
140
141
143
146
146
146
116
105
99
96
96
97
93
91
87
86
80
80
81
84
83
79
79
81
80
96
110
156
134
126
99
74
58
69
87
107
113
149
160
148
130
128
117
111
99
100
107
91
84
94
77
90
94
108
123
134
141
144
145
145
146
145
144
144
142
142
141
140
139
139
140
140
138
143
147
147
153
156
143
142
141
142
143
145
145
146
103
98
93
91
83
79
73
67
64
57
59
68
90
98
116
126
147
127
121
92
76
56
67
78
82
93
121
166
145
133
125
117
106
82
91
92
80
84
89
86
84
93
108
124
135
142
145
145
146
145
145
146
146
145
145
143
144
143
142
143
143
142
142
142
142
143
141
136
120
86
96
78
143
144
144
144
145
146
146
148
100
77
66
56
50
46
43
42
43
43
44
54
93
125
101
91
58
61
70
65
89
111
120
123
130
124
117
99
77
83
86
78
80
86
82
81
93
108
124
136
144
149
149
147
148
146
147
146
146
144
144
145
145
145
144
144
145
146
144
146
145
144
146
147
147
148
143
96
55
57
52
57
143
143
146
146
147
148
142
118
78
48
42
44
43
41
40
40
38
36
40
48
54
74
71
89
100
120
116
126
122
114
105
90
81
81
71
71
78
77
81
93
107
125
137
145
151
151
151
150
150
150
148
144
145
145
145
145
145
144
144
144
144
144
145
144
145
147
148
145
139
130
128
130
137
132
103
68
59
60
60
54
142
142
145
147
130
94
64
50
47
44
44
37
37
38
44
49
54
60
70
70
80
103
122
119
108
97
82
71
65
58
63
66
73
81
92
109
125
136
145
152
153
153
150
150
149
149
148
148
148
149
149
149
151
150
147
146
143
140
133
132
131
131
127
121
112
112
116
113
115
112
110
112
111
113
111
95
120
92
111
71
142
145
139
85
54
49
48
48
50
46
44
47
56
62
68
70
70
73
68
62
60
71
61
53
48
49
53
64
77
92
106
122
136
148
154
155
156
156
150
145
146
146
139
129
122
126
127
126
121
117
113
107
108
112
115
109
123
140
144
129
133
156
176
190
186
178
167
171
175
188
189
190
178
190
187
110
98
94
93
72
144
149
83
47
47
47
48
51
59
62
66
65
64
65
56
58
50
47
40
38
38
40
51
69
97
105
105
114
123
121
107
103
108
109
95
87
91
98
107
104
108
122
133
129
131
146
157
167
157
156
170
187
199
197
170
155
158
169
176
166
141
126
119
121
118
111
108
95
88
82
79
76
73
70
70
84
74
70
72
71
143
136
56
54
53
53
53
58
57
56
52
44
42
41
39
39
36
33
33
35
36
40
55
49
56
68
81
86
93
107
122
136
133
128
144
156
155
157
162
166
165
162
162
159
151
143
135
146
143
139
133
133
120
116
93
121
116
110
71
74
76
73
70
73
76
78
79
74
70
68
71
70
65
61
58
56
55
54
54
56
144
92
56
52
47
42
40
40
42
44
41
37
39
43
41
39
41
36
34
46
76
87
108
121
148
150
153
155
154
151
145
138
128
120
114
106
99
91
79
75
67
64
64
68
62
61
62
100
102
95
84
75
79
79
86
72
61
63
74
81
81
86
80
85
88
92
98
100
107
113
116
122
127
130
128
93
97
104
107
112
145
56
48
47
47
44
42
41
44
43
48
49
56
69
83
87
76
78
94
89
98
90
89
71
84
76
70
64
52
47
49
49
49
47
54
64
57
50
53
65
68
63
65
77
88
88
87
86
87
94
100
106
113
116
121
125
131
135
139
141
144
145
146
147
149
150
150
150
151
150
150
149
141
111
100
97
95
94
82
81
143
45
50
51
48
47
50
59
67
84
104
118
127
135
137
127
97
87
61
47
45
41
41
49
51
49
58
65
69
74
83
100
100
97
102
111
120
132
139
143
141
137
127
122
115
112
114
119
122
127
134
130
108
112
110
106
96
98
102
102
102
97
92
88
83
81
80
79
85
84
84
84
81
81
89
85
85
85
81
79
144
89
76
81
90
105
119
128
135
138
139
139
140
142
142
143
144
144
141
142
106
91
78
70
69
75
77
80
87
88
88
84
77
69
60
57
59
64
69
70
69
70
70
77
83
132
131
135
140
134
136
138
140
129
137
152
163
166
174
176
183
180
185
192
190
188
186
190
201
208
223
223
218
193
123
132
132
109
104
102
142
136
137
139
140
140
140
142
140
140
140
140
141
141
142
145
140
97
81
48
48
49
63
74
79
80
81
82
92
93
97
97
102
106
104
114
123
142
153
158
168
172
181
211
234
239
242
238
224
215
209
211
212
202
203
203
188
182
184
173
172
175
177
175
168
161
146
131
133
133
129
131
122
113
93
91
89
92
84
86
141
140
141
140
140
139
140
140
139
140
139
139
139
139
105
92
77
83
89
89
86
87
90
96
86
85
81
84
85
81
84
79
79
81
77
75
72
78
77
77
78
78
80
72
67
65
68
71
69
67
64
60
59
58
61
61
62
61
63
63
64
65
65
66
66
67
67
66
68
69
72
72
71
72
85
82
84
84
85
82
141
141
141
141
140
140
140
141
140
141
139
139
138
139
99
72
58
47
46
49
52
46
44
42
42
43
45
46
46
47
47
48
48
49
49
51
53
54
56
58
57
57
59
64
64
62
64
66
67
67
67
68
71
70
70
71
74
76
77
79
79
81
85
87
87
92
94
95
97
97
95
94
92
81
77
74
77
74
82
87
142
142
142
141
142
142
141
141
141
141
141
140
140
139
140
138
130
98
86
71
65
65
55
59
61
61
63
63
65
66
65
70
72
73
76
78
82
86
87
88
90
92
95
98
100
105
105
110
113
115
116
118
120
123
124
126
127
130
130
132
134
137
137
137
139
140
142
142
144
143
144
143
145
134
102
84
85
86
82
84
142
141
142
142
141
141
141
139
140
141
141
141
140
139
139
139
140
141
141
140
137
134
130
133
134
136
136
137
139
140
139
139
139
140
141
141
140
140
139
139
139
139
139
138
139
139
139
138
138
138
138
138
139
139
139
139
137
138
139
140
140
140
141
141
141
141
142
143
144
144
144
145
146
146
128
95
87
89
87
88
143
142
142
142
141
140
141
141
139
139
141
140
141
141
140
139
139
139
140
142
142
140
140
141
141
142
141
142
142
142
143
141
142
141
141
140
138
139
138
137
137
137
139
138
136
136
135
136
136
136
136
135
136
137
136
137
138
137
137
138
138
139
139
139
141
140
140
141
143
144
143
144
145
145
146
143
141
138
135
133
144
142
142
142
141
141
141
142
140
141
141
140
141
141
141
140
139
139
139
141
141
140
139
140
141
141
141
141
141
141
141
139
139
139
139
139
138
140
139
138
137
136
137
137
136
136
136
135
137
136
136
136
136
136
136
137
138
136
137
139
139
139
139
140
141
141
141
141
144
145
145
146
146
146
146
146
147
147
147
148
142
142
142
143
142
141
142
141
140
140
140
141
141
141
139
139
139
139
140
141
140
139
138
140
140
139
139
140
140
141
141
139
138
139
138
138
139
139
139
138
137
138
137
137
137
137
137
136
136
137
136
136
136
137
136
136
137
136
137
137
138
139
139
139
140
140
142
141
142
141
143
145
144
146
145
145
147
147
148
147
141
141
140
142
141
141
141
141
140
140
141
140
141
141
139
139
138
139
139
141
140
139
140
140
140
139
138
139
139
138
139
138
139
138
136
137
137
137
137
138
137
136
136
136
136
136
134
135
134
134
135
136
134
135
135
135
135
135
136
135
136
138
138
138
140
140
140
141
141
141
142
145
146
146
146
145
146
148
147
148
140
139
140
141
141
141
141
141
140
140
140
139
140
140
140
139
137
138
139
139
139
140
140
139
137
138
138
138
137
137
136
137
136
136
136
136
136
135
136
137
137
136
135
136
135
135
136
133
134
134
134
134
135
135
134
135
134
134
135
135
137
136
137
138
139
137
137
139
139
141
143
144
144
145
145
145
144
146
146
146
141
140
140
140
139
141
140
139
139
139
138
139
139
139
139
139
139
138
138
138
139
139
139
138
137
136
135
136
137
135
136
135
136
136
136
136
136
135
135
136
135
136
136
136
135
134
134
133
133
133
133
134
134
132
134
133
134
134
134
135
135
137
138
137
137
139
138
138
139
140
142
144
144
144
143
145
145
144
145
147
140
140
141
140
140
140
140
139
139
140
139
139
139
138
139
138
137
137
136
137
138
139
138
138
135
135
135
135
135
135
135
135
135
134
135
135
134
134
134
134
134
134
133
135
133
133
132
133
132
133
132
133
132
133
132
132
133
134
134
133
134
135
136
138
139
137
137
137
138
139
143
143
143
143
143
144
144
145
145
145
140
139
140
139
140
139
140
138
138
139
138
138
137
137
137
137
136
135
136
138
138
139
137
135
135
135
135
135
134
135
135
134
134
133
133
133
134
135
135
133
135
134
133
134
133
132
134
133
133
133
134
133
132
133
133
133
133
134
133
133
133
133
135
138
137
136
137
138
139
138
139
140
141
142
142
143
143
144
145
144
140
140
140
141
141
140
140
139
138
138
138
138
137
136
137
137
137
137
137
137
137
137
137
136
134
135
135
134
133
134
134
134
134
134
133
133
133
133
134
134
133
133
133
133
132
133
134
134
133
132
133
132
132
132
133
132
133
133
133
133
133
133
133
135
135
135
135
136
137
137
137
139
139
141
142
142
144
143
144
143
140
139
141
141
141
140
141
140
139
138
139
139
137
137
137
137
137
136
136
137
137
137
137
136
136
135
135
134
134
134
134
134
134
134
134
134
133
134
133
133
133
133
133
134
134
134
133
134
133
132
131
132
132
131
132
132
132
131
131
133
134
133
133
135
136
135
135
136
136
137
138
138
139
140
141
142
143
142
143
143
139
140
140
140
140
140
140
139
138
137
138
138
137
137
137
137
137
137
136
136
137
137
137
136
135
135
134
134
134
134
134
133
134
134
133
133
132
132
134
133
134
132
132
133
133
134
134
134
133
132
132
132
133
132
132
131
131
131
132
133
133
132
133
134
134
134
134
136
135
136
137
138
139
140
141
141
142
141
142
143
139
139
139
139
140
140
139
139
138
138
138
137
137
137
135
136
135
137
137
136
137
135
136
136
136
136
135
134
133
135
135
134
132
133
132
131
132
131
131
132
133
132
131
132
132
132
133
133
133
133
133
134
134
133
132
132
131
132
132
132
133
134
134
133
133
134
134
134
135
136
136
137
138
138
139
140
140
141
142
142
140
139
139
139
139
138
138
139
138
137
137
137
137
136
134
136
134
136
137
136
136
136
135
136
136
135
135
134
134
135
135
134
133
133
132
131
132
132
133
132
133
133
131
132
131
131
132
132
132
132
132
133
132
132
132
132
132
132
132
133
133
133
132
132
133
133
134
134
134
135
136
136
137
139
139
140
140
142
142
142
140
139
138
139
140
140
139
139
139
137
136
136
136
135
135
134
135
134
134
135
134
134
133
134
134
133
134
134
134
134
134
134
134
133
132
132
132
133
133
132
132
132
132
132
130
131
131
131
132
132
132
133
132
132
131
131
132
132
133
134
134
133
133
133
133
133
134
134
134
135
137
137
137
137
137
139
140
142
142
143
139
138
139
139
139
140
138
138
137
137
137
134
134
135
134
134
134
134
134
134
134
134
134
134
134
134
133
134
134
133
133
133
133
133
133
133
132
132
132
132
132
131
132
132
133
131
132
132
132
132
132
133
132
132
133
132
133
133
133
133
133
134
133
134
133
133
134
134
134
136
136
137
137
138
138
139
141
142
143
143
139
138
138
139
139
139
138
138
138
137
136
135
134
135
134
133
134
134
134
133
134
135
135
134
134
133
133
133
133
134
133
133
132
134
133
134
132
132
132
132
132
131
131
132
131
132
132
132
132
132
132
132
132
133
132
132
133
132
132
133
133
134
134
135
134
135
134
134
135
136
136
137
138
138
139
139
142
142
143
143
140
139
138
138
139
139
138
137
136
135
134
134
133
132
132
132
134
132
131
132
132
133
132
132
132
132
132
133
132
132
132
133
134
132
132
132
131
132
131
130
132
132
133
131
131
130
129
130
130
131
130
131
130
131
132
131
133
132
134
135
134
134
133
134
134
135
134
135
135
136
135
135
137
137
138
141
142
142
142
144
